<?xml version="1.0" encoding="utf-8"?>
<!-- Generator: Adobe Illustrator 24.1.0, SVG Export Plug-In . SVG Version: 6.00 Build 0)  -->
<svg version="1.1" id="Layer_1" xmlns="http://www.w3.org/2000/svg" xmlns:xlink="http://www.w3.org/1999/xlink" x="0px" y="0px"
	 viewBox="0 0 64 80" style="enable-background:new 0 0 64 80;" xml:space="preserve">
<style type="text/css">
	.st0{fill:#FFFFFF;stroke:#000000;stroke-width:2;stroke-miterlimit:10;}
</style>
<ellipse class="st0" cx="31.1" cy="40" rx="25.5" ry="26.3"/>
<g>
	<path d="M45.5,25.8H16.7c-1.8,0-3.3,1.5-3.3,3.5v19.5c0,1.9,1.5,3.5,3.3,3.5h28.8c1.8,0,3.3-1.5,3.3-3.5V29.2
		C48.7,27.3,47.3,25.8,45.5,25.8z M47,48.7c0,0.9-0.7,1.6-1.5,1.6H16.7c-0.8,0-1.5-0.7-1.5-1.6V29.2c0-0.9,0.7-1.6,1.5-1.6h28.8
		c0.8,0,1.5,0.7,1.5,1.6V48.7z M45.5,29.5c0.4,0.4,0.4,1,0,1.3c0,0,0,0,0,0L37.7,39l7.5,8.1c0.3,0.4,0.3,1,0,1.3
		c-0.4,0.4-0.9,0.4-1.3,0l-7.5-8.1l-2.2,2.3c-1.8,1.8-4.6,1.8-6.4,0l-2.2-2.3l-7.5,8.1c-0.3,0.4-0.9,0.4-1.3,0c-0.4-0.4-0.4-1,0-1.3
		l7.5-8.1l-7.8-8.1c-0.4-0.4-0.4-1,0-1.3s0.9-0.4,1.3,0l11.2,11.8c1.1,1.1,2.8,1.1,3.8,0l11.2-11.8C44.6,29.1,45.1,29.1,45.5,29.5
		C45.5,29.5,45.5,29.5,45.5,29.5z"/>
</g>
</svg>
